<?xml version="1.0"?>
<svg xmlns:rdf="http://www.w3.org/1999/02/22-rdf-syntax-ns#" xmlns="http://www.w3.org/2000/svg" xmlns:cc="http://creativecommons.org/ns#" xmlns:dc="http://purl.org/dc/elements/1.1/" xmlns:svg="http://www.w3.org/2000/svg" id="svg2417" viewBox="0 0 101.66 99.979" version="1.0">
  <g id="layer1" transform="translate(-324.17 -482.37)">
    <g id="g3517" transform="matrix(.86284 0 0 .86284 277.53 463.36)">
      <path id="path2035" d="m310.66 132.06c-1.82 2.04-22.21-18.38-24.89-17.38-2.68 1.01-6.74 33.64-9.57 34.01-2.84 0.37-7.72-33.08-10.49-33.88-2.76-0.8-18.77 19.34-21.18 17.83-2.4-1.52 5.7-26.1 4.37-28.68-1.34-2.57-31.86-3.78-32.49-6.645-0.63-2.87 27.67-10.4 27.9-13.242 0.23-2.843-19-18.902-17.9-21.394s26.86 8.177 28.6 5.992c1.74-2.186-3.39-29.684-0.75-30.508 2.64-0.823 18.5 18.486 21.32 18.393 2.82-0.092 11.3-24.287 14.18-23.722s1.44 25.668 3.67 27.344 24.27-6.283 25.91-4.005c1.63 2.278-12.64 24.445-11.78 27.073s27.01 5.135 26.65 7.852c-0.35 2.717-32.7 3.876-34.04 6.507-1.35 2.635 12.32 32.415 10.49 34.455z" fill="#f5ff12" transform="translate(-162.34 -10.785)"/>
      <path id="path1305" d="m194.52 77.284a39.901 37.407 0 1 1 -79.8 0 39.901 37.407 0 1 1 79.8 0z" transform="matrix(.97997 0 0 .87717 -39.126 6.6049)" stroke="#f5ff12" stroke-miterlimit=".5" stroke-width="7.6925" fill="#fff"/>
    </g>
  </g>
  <metadata>
    <rdf:RDF>
      <cc:Work>
        <dc:format>image/svg+xml</dc:format>
        <dc:type rdf:resource="http://purl.org/dc/dcmitype/StillImage"/>
        <cc:license rdf:resource="http://creativecommons.org/licenses/publicdomain/"/>
        <dc:publisher>
          <cc:Agent rdf:about="http://openclipart.org/">
            <dc:title>Openclipart</dc:title>
          </cc:Agent>
        </dc:publisher>
        <dc:title>simple weather symbols</dc:title>
        <dc:date>2008-02-08T23:54:06</dc:date>
        <dc:description>clip art, clipart, clouds, clouds, icon, icon, image, media, png, public domain, rain, rain, snow, snow, sun, sun, svg, symbol, symbol, weather, weather, </dc:description>
        <dc:source>http://openclipart.org/detail/14702/simple-weather-symbols-by-anonymous-14702</dc:source>
        <dc:creator>
          <cc:Agent>
            <dc:title>Anonymous</dc:title>
          </cc:Agent>
        </dc:creator>
        <dc:subject>
          <rdf:Bag>
            <rdf:li>clip art</rdf:li>
            <rdf:li>clipart</rdf:li>
            <rdf:li>clouds</rdf:li>
            <rdf:li>icon</rdf:li>
            <rdf:li>image</rdf:li>
            <rdf:li>media</rdf:li>
            <rdf:li>png</rdf:li>
            <rdf:li>public domain</rdf:li>
            <rdf:li>rain</rdf:li>
            <rdf:li>snow</rdf:li>
            <rdf:li>sun</rdf:li>
            <rdf:li>svg</rdf:li>
            <rdf:li>symbol</rdf:li>
            <rdf:li>weather</rdf:li>
          </rdf:Bag>
        </dc:subject>
      </cc:Work>
      <cc:License rdf:about="http://creativecommons.org/licenses/publicdomain/">
        <cc:permits rdf:resource="http://creativecommons.org/ns#Reproduction"/>
        <cc:permits rdf:resource="http://creativecommons.org/ns#Distribution"/>
        <cc:permits rdf:resource="http://creativecommons.org/ns#DerivativeWorks"/>
      </cc:License>
    </rdf:RDF>
  </metadata>
</svg>
